<?xml version="1.0" standalone="no"?>
<!DOCTYPE svg PUBLIC "-//W3C//DTD SVG 20010904//EN"
 "http://www.w3.org/TR/2001/REC-SVG-20010904/DTD/svg10.dtd">
<svg version="1.0" xmlns="http://www.w3.org/2000/svg"
 width="597.000000pt" height="446.000000pt" viewBox="0 0 597.000000 446.000000"
 preserveAspectRatio="xMidYMid meet">

<g transform="translate(0.000000,446.000000) scale(0.100000,-0.100000)"
fill="#000000" stroke="none">
<path d="M32 4427 l-22 -23 0 -1725 0 -1726 25 -23 26 -24 1042 -1 1042 0 61
32 c34 18 85 54 115 81 l53 49 -2 89 c-1 49 7 163 18 254 40 334 17 466 -109
600 l-48 51 -339 -6 c-393 -8 -500 -1 -571 41 -55 32 -116 92 -138 135 -25 48
-38 383 -30 754 l7 310 467 0 c514 0 518 1 643 67 104 55 103 53 102 256 0 98
-9 313 -19 480 l-19 302 -36 25 -36 25 -1105 0 -1106 0 -21 -23z"/>
<path d="M3664 4422 c-20 -26 -21 -40 -28 -497 l-7 -470 28 -55 c23 -44 37
-59 77 -79 l49 -25 503 3 504 3 3 -454 c3 -629 3 -619 -17 -672 -18 -48 -58
-85 -111 -106 -22 -9 -166 -12 -533 -11 l-503 2 3 -478 3 -478 32 -65 c18 -36
46 -80 63 -99 27 -29 35 -32 63 -27 263 54 427 -37 606 -335 41 -68 105 -171
141 -229 37 -58 93 -156 124 -217 31 -62 60 -113 64 -113 14 0 187 140 215
174 15 19 47 79 71 134 144 328 328 517 565 577 74 19 202 24 309 12 l72 -8 0
1770 0 1771 -1137 -1 -1138 0 -21 -27z"/>
</g>
</svg>
